<mxfile host="65bd71144e">
    <diagram id="mtfL6BN0NUvYYh-mcCLw" name="第 1 页">
        <mxGraphModel dx="485" dy="749" grid="1" gridSize="10" guides="1" tooltips="1" connect="1" arrows="1" fold="1" page="1" pageScale="1" pageWidth="827" pageHeight="1169" math="0" shadow="0">
            <root>
                <mxCell id="0"/>
                <mxCell id="1" parent="0"/>
                <mxCell id="4" value="" style="edgeStyle=orthogonalEdgeStyle;rounded=0;orthogonalLoop=1;jettySize=auto;html=1;" parent="1" source="2" target="3" edge="1">
                    <mxGeometry relative="1" as="geometry"/>
                </mxCell>
                <mxCell id="2" value="ReactDOM.render" style="rounded=1;whiteSpace=wrap;html=1;" parent="1" vertex="1">
                    <mxGeometry x="70" y="120" width="150" height="50" as="geometry"/>
                </mxCell>
                <mxCell id="3" value="&lt;div style=&quot;color: rgb(171 , 178 , 191) ; background-color: rgb(40 , 44 , 52) ; font-family: &amp;#34;menlo&amp;#34; , &amp;#34;monaco&amp;#34; , &amp;#34;courier new&amp;#34; , monospace ; line-height: 18px&quot;&gt;legacyRenderSubtreeIntoContainer&lt;/div&gt;" style="rounded=0;whiteSpace=wrap;html=1;" parent="1" vertex="1">
                    <mxGeometry x="17.5" y="210" width="255" height="60" as="geometry"/>
                </mxCell>
            </root>
        </mxGraphModel>
    </diagram>
    <diagram id="gndh_4Jr1iht6SzT3Ca-" name="React 双缓存">
        <mxGraphModel dx="571" dy="881" grid="1" gridSize="7" guides="1" tooltips="1" connect="1" arrows="1" fold="1" page="1" pageScale="1" pageWidth="827" pageHeight="1169" background="#ffffff" math="0" shadow="0">
            <root>
                <mxCell id="_Rq-kcXYGwk_LHB96VFM-0"/>
                <mxCell id="_Rq-kcXYGwk_LHB96VFM-1" parent="_Rq-kcXYGwk_LHB96VFM-0"/>
                <mxCell id="_Rq-kcXYGwk_LHB96VFM-4" value="current" style="edgeStyle=orthogonalEdgeStyle;orthogonalLoop=1;jettySize=auto;html=1;strokeColor=#E07A5F;fontColor=#393C56;labelBackgroundColor=#F4F1DE;sketch=1;" parent="_Rq-kcXYGwk_LHB96VFM-1" source="_Rq-kcXYGwk_LHB96VFM-2" target="_Rq-kcXYGwk_LHB96VFM-3" edge="1">
                    <mxGeometry relative="1" as="geometry">
                        <Array as="points">
                            <mxPoint x="270" y="130"/>
                            <mxPoint x="270" y="130"/>
                        </Array>
                    </mxGeometry>
                </mxCell>
                <mxCell id="_Rq-kcXYGwk_LHB96VFM-2" value="fiberRootNode" style="whiteSpace=wrap;html=1;fillColor=#F2CC8F;strokeColor=#E07A5F;fontColor=#393C56;sketch=1;" parent="_Rq-kcXYGwk_LHB96VFM-1" vertex="1">
                    <mxGeometry x="240" y="50" width="120" height="60" as="geometry"/>
                </mxCell>
                <mxCell id="_Rq-kcXYGwk_LHB96VFM-6" value="" style="edgeStyle=orthogonalEdgeStyle;orthogonalLoop=1;jettySize=auto;html=1;strokeColor=#E07A5F;fontColor=#393C56;labelBackgroundColor=#F4F1DE;sketch=1;" parent="_Rq-kcXYGwk_LHB96VFM-1" source="_Rq-kcXYGwk_LHB96VFM-3" target="_Rq-kcXYGwk_LHB96VFM-5" edge="1">
                    <mxGeometry relative="1" as="geometry">
                        <Array as="points">
                            <mxPoint x="270" y="250"/>
                            <mxPoint x="270" y="250"/>
                        </Array>
                    </mxGeometry>
                </mxCell>
                <mxCell id="_Rq-kcXYGwk_LHB96VFM-23" value="child" style="edgeLabel;html=1;align=center;verticalAlign=middle;resizable=0;points=[];fontColor=#393C56;labelBackgroundColor=#F4F1DE;sketch=1;" parent="_Rq-kcXYGwk_LHB96VFM-6" vertex="1" connectable="0">
                    <mxGeometry x="-0.0736" y="5" relative="1" as="geometry">
                        <mxPoint as="offset"/>
                    </mxGeometry>
                </mxCell>
                <mxCell id="_Rq-kcXYGwk_LHB96VFM-17" style="edgeStyle=orthogonalEdgeStyle;orthogonalLoop=1;jettySize=auto;html=1;exitX=0.75;exitY=0;exitDx=0;exitDy=0;entryX=0.75;entryY=1;entryDx=0;entryDy=0;strokeColor=#E07A5F;fontColor=#393C56;labelBackgroundColor=#F4F1DE;sketch=1;" parent="_Rq-kcXYGwk_LHB96VFM-1" source="_Rq-kcXYGwk_LHB96VFM-3" target="_Rq-kcXYGwk_LHB96VFM-2" edge="1">
                    <mxGeometry relative="1" as="geometry">
                        <mxPoint x="330.52941176470586" y="120" as="targetPoint"/>
                    </mxGeometry>
                </mxCell>
                <mxCell id="_Rq-kcXYGwk_LHB96VFM-31" value="stateNode" style="edgeLabel;html=1;align=center;verticalAlign=middle;resizable=0;points=[];fontColor=#393C56;labelBackgroundColor=#F4F1DE;sketch=1;" parent="_Rq-kcXYGwk_LHB96VFM-17" vertex="1" connectable="0">
                    <mxGeometry x="-0.0832" relative="1" as="geometry">
                        <mxPoint as="offset"/>
                    </mxGeometry>
                </mxCell>
                <mxCell id="_Rq-kcXYGwk_LHB96VFM-3" value="rootFiber" style="whiteSpace=wrap;html=1;fillColor=#F2CC8F;strokeColor=#E07A5F;fontColor=#393C56;sketch=1;" parent="_Rq-kcXYGwk_LHB96VFM-1" vertex="1">
                    <mxGeometry x="240" y="170" width="120" height="60" as="geometry"/>
                </mxCell>
                <mxCell id="_Rq-kcXYGwk_LHB96VFM-8" value="child" style="edgeStyle=orthogonalEdgeStyle;orthogonalLoop=1;jettySize=auto;html=1;strokeColor=#E07A5F;fontColor=#393C56;labelBackgroundColor=#F4F1DE;sketch=1;" parent="_Rq-kcXYGwk_LHB96VFM-1" source="_Rq-kcXYGwk_LHB96VFM-5" target="_Rq-kcXYGwk_LHB96VFM-7" edge="1">
                    <mxGeometry relative="1" as="geometry">
                        <Array as="points">
                            <mxPoint x="270" y="370"/>
                            <mxPoint x="270" y="370"/>
                        </Array>
                    </mxGeometry>
                </mxCell>
                <mxCell id="_Rq-kcXYGwk_LHB96VFM-18" style="edgeStyle=orthogonalEdgeStyle;orthogonalLoop=1;jettySize=auto;html=1;exitX=0.75;exitY=0;exitDx=0;exitDy=0;entryX=0.75;entryY=1;entryDx=0;entryDy=0;strokeColor=#E07A5F;fontColor=#393C56;labelBackgroundColor=#F4F1DE;sketch=1;" parent="_Rq-kcXYGwk_LHB96VFM-1" source="_Rq-kcXYGwk_LHB96VFM-5" target="_Rq-kcXYGwk_LHB96VFM-3" edge="1">
                    <mxGeometry relative="1" as="geometry"/>
                </mxCell>
                <mxCell id="_Rq-kcXYGwk_LHB96VFM-30" value="return" style="edgeLabel;html=1;align=center;verticalAlign=middle;resizable=0;points=[];fontColor=#393C56;labelBackgroundColor=#F4F1DE;sketch=1;" parent="_Rq-kcXYGwk_LHB96VFM-18" vertex="1" connectable="0">
                    <mxGeometry x="-0.1617" y="-1" relative="1" as="geometry">
                        <mxPoint as="offset"/>
                    </mxGeometry>
                </mxCell>
                <mxCell id="_Rq-kcXYGwk_LHB96VFM-96" style="edgeStyle=none;orthogonalLoop=1;jettySize=auto;html=1;exitX=1;exitY=0.5;exitDx=0;exitDy=0;entryX=0;entryY=0.5;entryDx=0;entryDy=0;endArrow=classic;startArrow=classic;strokeColor=#E07A5F;fontColor=#393C56;labelBackgroundColor=#F4F1DE;sketch=1;" parent="_Rq-kcXYGwk_LHB96VFM-1" source="_Rq-kcXYGwk_LHB96VFM-5" target="_Rq-kcXYGwk_LHB96VFM-61" edge="1">
                    <mxGeometry relative="1" as="geometry"/>
                </mxCell>
                <mxCell id="_Rq-kcXYGwk_LHB96VFM-99" value="&lt;span style=&quot;color: rgba(0 , 0 , 0 , 0) ; font-family: monospace ; font-size: 0px&quot;&gt;%3CmxGraphModel%3E%3Croot%3E%3CmxCell%20id%3D%220%22%2F%3E%3CmxCell%20id%3D%221%22%20parent%3D%220%22%2F%3E%3CmxCell%20id%3D%222%22%20value%3D%22altermate%22%20style%3D%22edgeLabel%3Bhtml%3D1%3Balign%3Dcenter%3BverticalAlign%3Dmiddle%3Bresizable%3D0%3Bpoints%3D%5B%5D%3B%22%20vertex%3D%221%22%20connectable%3D%220%22%20parent%3D%221%22%3E%3CmxGeometry%20x%3D%22427.0588235294117%22%20y%3D%22203%22%20as%3D%22geometry%22%2F%3E%3C%2FmxCell%3E%3C%2Froot%3E%3C%2FmxGraphModel%3E&lt;/span&gt;" style="edgeLabel;html=1;align=center;verticalAlign=middle;resizable=0;points=[];fontColor=#393C56;labelBackgroundColor=#F4F1DE;sketch=1;" parent="_Rq-kcXYGwk_LHB96VFM-96" vertex="1" connectable="0">
                    <mxGeometry x="-0.0629" y="-1" relative="1" as="geometry">
                        <mxPoint as="offset"/>
                    </mxGeometry>
                </mxCell>
                <mxCell id="_Rq-kcXYGwk_LHB96VFM-100" value="altermate" style="edgeLabel;html=1;align=center;verticalAlign=middle;resizable=0;points=[];fontColor=#393C56;labelBackgroundColor=#F4F1DE;sketch=1;" parent="_Rq-kcXYGwk_LHB96VFM-96" vertex="1" connectable="0">
                    <mxGeometry x="-0.0965" y="-1" relative="1" as="geometry">
                        <mxPoint as="offset"/>
                    </mxGeometry>
                </mxCell>
                <mxCell id="_Rq-kcXYGwk_LHB96VFM-5" value="App" style="whiteSpace=wrap;html=1;fillColor=#F2CC8F;strokeColor=#E07A5F;fontColor=#393C56;sketch=1;" parent="_Rq-kcXYGwk_LHB96VFM-1" vertex="1">
                    <mxGeometry x="240" y="290" width="120" height="60" as="geometry"/>
                </mxCell>
                <mxCell id="_Rq-kcXYGwk_LHB96VFM-10" value="" style="edgeStyle=orthogonalEdgeStyle;orthogonalLoop=1;jettySize=auto;html=1;strokeColor=#E07A5F;fontColor=#393C56;labelBackgroundColor=#F4F1DE;sketch=1;" parent="_Rq-kcXYGwk_LHB96VFM-1" source="_Rq-kcXYGwk_LHB96VFM-7" target="_Rq-kcXYGwk_LHB96VFM-9" edge="1">
                    <mxGeometry relative="1" as="geometry">
                        <Array as="points">
                            <mxPoint x="270" y="500"/>
                            <mxPoint x="270" y="500"/>
                        </Array>
                    </mxGeometry>
                </mxCell>
                <mxCell id="_Rq-kcXYGwk_LHB96VFM-24" value="child" style="edgeLabel;html=1;align=center;verticalAlign=middle;resizable=0;points=[];fontColor=#393C56;labelBackgroundColor=#F4F1DE;sketch=1;" parent="_Rq-kcXYGwk_LHB96VFM-10" vertex="1" connectable="0">
                    <mxGeometry x="-0.2501" y="-3" relative="1" as="geometry">
                        <mxPoint as="offset"/>
                    </mxGeometry>
                </mxCell>
                <mxCell id="_Rq-kcXYGwk_LHB96VFM-19" style="edgeStyle=orthogonalEdgeStyle;orthogonalLoop=1;jettySize=auto;html=1;exitX=0.75;exitY=0;exitDx=0;exitDy=0;entryX=0.75;entryY=1;entryDx=0;entryDy=0;strokeColor=#E07A5F;fontColor=#393C56;labelBackgroundColor=#F4F1DE;sketch=1;" parent="_Rq-kcXYGwk_LHB96VFM-1" source="_Rq-kcXYGwk_LHB96VFM-7" target="_Rq-kcXYGwk_LHB96VFM-5" edge="1">
                    <mxGeometry relative="1" as="geometry"/>
                </mxCell>
                <mxCell id="_Rq-kcXYGwk_LHB96VFM-29" value="return" style="edgeLabel;html=1;align=center;verticalAlign=middle;resizable=0;points=[];fontColor=#393C56;labelBackgroundColor=#F4F1DE;sketch=1;" parent="_Rq-kcXYGwk_LHB96VFM-19" vertex="1" connectable="0">
                    <mxGeometry x="0.0379" y="-1" relative="1" as="geometry">
                        <mxPoint as="offset"/>
                    </mxGeometry>
                </mxCell>
                <mxCell id="_Rq-kcXYGwk_LHB96VFM-101" style="edgeStyle=none;orthogonalLoop=1;jettySize=auto;html=1;exitX=1;exitY=0.5;exitDx=0;exitDy=0;entryX=0;entryY=0.5;entryDx=0;entryDy=0;strokeColor=#E07A5F;fontColor=#393C56;labelBackgroundColor=#F4F1DE;sketch=1;" parent="_Rq-kcXYGwk_LHB96VFM-1" source="_Rq-kcXYGwk_LHB96VFM-7" target="_Rq-kcXYGwk_LHB96VFM-66" edge="1">
                    <mxGeometry relative="1" as="geometry"/>
                </mxCell>
                <mxCell id="_Rq-kcXYGwk_LHB96VFM-102" value="&lt;span style=&quot;color: rgba(0 , 0 , 0 , 0) ; font-family: monospace ; font-size: 0px&quot;&gt;%3CmxGraphModel%3E%3Croot%3E%3CmxCell%20id%3D%220%22%2F%3E%3CmxCell%20id%3D%221%22%20parent%3D%220%22%2F%3E%3CmxCell%20id%3D%222%22%20value%3D%22altermate%22%20style%3D%22edgeLabel%3Bhtml%3D1%3Balign%3Dcenter%3BverticalAlign%3Dmiddle%3Bresizable%3D0%3Bpoints%3D%5B%5D%3B%22%20vertex%3D%221%22%20connectable%3D%220%22%20parent%3D%221%22%3E%3CmxGeometry%20x%3D%22423.52941176470586%22%20y%3D%22321%22%20as%3D%22geometry%22%2F%3E%3C%2FmxCell%3E%3C%2Froot%3E%3C%2FmxGraphModel%3E&lt;/span&gt;" style="edgeLabel;html=1;align=center;verticalAlign=middle;resizable=0;points=[];fontColor=#393C56;labelBackgroundColor=#F4F1DE;sketch=1;" parent="_Rq-kcXYGwk_LHB96VFM-101" vertex="1" connectable="0">
                    <mxGeometry x="-0.0461" y="2" relative="1" as="geometry">
                        <mxPoint as="offset"/>
                    </mxGeometry>
                </mxCell>
                <mxCell id="_Rq-kcXYGwk_LHB96VFM-103" value="altermate" style="edgeLabel;html=1;align=center;verticalAlign=middle;resizable=0;points=[];fontColor=#393C56;labelBackgroundColor=#F4F1DE;sketch=1;" parent="_Rq-kcXYGwk_LHB96VFM-101" vertex="1" connectable="0">
                    <mxGeometry x="0.0043" y="-1" relative="1" as="geometry">
                        <mxPoint as="offset"/>
                    </mxGeometry>
                </mxCell>
                <mxCell id="_Rq-kcXYGwk_LHB96VFM-7" value="div" style="whiteSpace=wrap;html=1;fillColor=#F2CC8F;strokeColor=#E07A5F;fontColor=#393C56;sketch=1;" parent="_Rq-kcXYGwk_LHB96VFM-1" vertex="1">
                    <mxGeometry x="240" y="420" width="120" height="60" as="geometry"/>
                </mxCell>
                <mxCell id="_Rq-kcXYGwk_LHB96VFM-12" value="" style="edgeStyle=orthogonalEdgeStyle;orthogonalLoop=1;jettySize=auto;html=1;strokeColor=#E07A5F;fontColor=#393C56;labelBackgroundColor=#F4F1DE;sketch=1;" parent="_Rq-kcXYGwk_LHB96VFM-1" source="_Rq-kcXYGwk_LHB96VFM-9" target="_Rq-kcXYGwk_LHB96VFM-11" edge="1">
                    <mxGeometry relative="1" as="geometry"/>
                </mxCell>
                <mxCell id="_Rq-kcXYGwk_LHB96VFM-34" value="sibling" style="edgeLabel;html=1;align=center;verticalAlign=middle;resizable=0;points=[];fontColor=#393C56;labelBackgroundColor=#F4F1DE;sketch=1;" parent="_Rq-kcXYGwk_LHB96VFM-12" vertex="1" connectable="0">
                    <mxGeometry x="-0.092" y="-2" relative="1" as="geometry">
                        <mxPoint x="4" y="-12" as="offset"/>
                    </mxGeometry>
                </mxCell>
                <mxCell id="_Rq-kcXYGwk_LHB96VFM-14" value="" style="edgeStyle=orthogonalEdgeStyle;orthogonalLoop=1;jettySize=auto;html=1;strokeColor=#E07A5F;fontColor=#393C56;labelBackgroundColor=#F4F1DE;sketch=1;" parent="_Rq-kcXYGwk_LHB96VFM-1" source="_Rq-kcXYGwk_LHB96VFM-9" target="_Rq-kcXYGwk_LHB96VFM-13" edge="1">
                    <mxGeometry relative="1" as="geometry">
                        <Array as="points">
                            <mxPoint x="270" y="620"/>
                            <mxPoint x="270" y="620"/>
                        </Array>
                    </mxGeometry>
                </mxCell>
                <mxCell id="_Rq-kcXYGwk_LHB96VFM-25" value="child" style="edgeLabel;html=1;align=center;verticalAlign=middle;resizable=0;points=[];fontColor=#393C56;labelBackgroundColor=#F4F1DE;sketch=1;" parent="_Rq-kcXYGwk_LHB96VFM-14" vertex="1" connectable="0">
                    <mxGeometry x="0.0798" y="1" relative="1" as="geometry">
                        <mxPoint as="offset"/>
                    </mxGeometry>
                </mxCell>
                <mxCell id="_Rq-kcXYGwk_LHB96VFM-20" style="edgeStyle=orthogonalEdgeStyle;orthogonalLoop=1;jettySize=auto;html=1;exitX=0.75;exitY=0;exitDx=0;exitDy=0;entryX=0.75;entryY=1;entryDx=0;entryDy=0;strokeColor=#E07A5F;fontColor=#393C56;labelBackgroundColor=#F4F1DE;sketch=1;" parent="_Rq-kcXYGwk_LHB96VFM-1" source="_Rq-kcXYGwk_LHB96VFM-9" target="_Rq-kcXYGwk_LHB96VFM-7" edge="1">
                    <mxGeometry relative="1" as="geometry"/>
                </mxCell>
                <mxCell id="_Rq-kcXYGwk_LHB96VFM-27" value="&lt;span style=&quot;color: rgba(0 , 0 , 0 , 0) ; font-family: monospace ; font-size: 0px&quot;&gt;%3CmxGraphModel%3E%3Croot%3E%3CmxCell%20id%3D%220%22%2F%3E%3CmxCell%20id%3D%221%22%20parent%3D%220%22%2F%3E%3CmxCell%20id%3D%222%22%20value%3D%22return%22%20style%3D%22edgeLabel%3Bhtml%3D1%3Balign%3Dcenter%3BverticalAlign%3Dmiddle%3Bresizable%3D0%3Bpoints%3D%5B%5D%3B%22%20vertex%3D%221%22%20connectable%3D%220%22%20parent%3D%221%22%3E%3CmxGeometry%20x%3D%22334%22%20y%3D%22639.4117647058822%22%20as%3D%22geometry%22%2F%3E%3C%2FmxCell%3E%3C%2Froot%3E%3C%2FmxGraphModel%3E&lt;/span&gt;" style="edgeLabel;html=1;align=center;verticalAlign=middle;resizable=0;points=[];fontColor=#393C56;labelBackgroundColor=#F4F1DE;sketch=1;" parent="_Rq-kcXYGwk_LHB96VFM-20" vertex="1" connectable="0">
                    <mxGeometry x="-0.0636" relative="1" as="geometry">
                        <mxPoint as="offset"/>
                    </mxGeometry>
                </mxCell>
                <mxCell id="_Rq-kcXYGwk_LHB96VFM-28" value="return" style="edgeLabel;html=1;align=center;verticalAlign=middle;resizable=0;points=[];fontColor=#393C56;labelBackgroundColor=#F4F1DE;sketch=1;" parent="_Rq-kcXYGwk_LHB96VFM-20" vertex="1" connectable="0">
                    <mxGeometry x="-0.0244" y="5" relative="1" as="geometry">
                        <mxPoint as="offset"/>
                    </mxGeometry>
                </mxCell>
                <mxCell id="_Rq-kcXYGwk_LHB96VFM-104" value="altermate" style="edgeStyle=none;orthogonalLoop=1;jettySize=auto;html=1;exitX=1;exitY=0.5;exitDx=0;exitDy=0;strokeColor=#E07A5F;fontColor=#393C56;labelBackgroundColor=#F4F1DE;sketch=1;" parent="_Rq-kcXYGwk_LHB96VFM-1" source="_Rq-kcXYGwk_LHB96VFM-9" target="_Rq-kcXYGwk_LHB96VFM-74" edge="1">
                    <mxGeometry relative="1" as="geometry"/>
                </mxCell>
                <mxCell id="_Rq-kcXYGwk_LHB96VFM-9" value="h1" style="whiteSpace=wrap;html=1;fillColor=#F2CC8F;strokeColor=#E07A5F;fontColor=#393C56;sketch=1;" parent="_Rq-kcXYGwk_LHB96VFM-1" vertex="1">
                    <mxGeometry x="240" y="540" width="120" height="60" as="geometry"/>
                </mxCell>
                <mxCell id="_Rq-kcXYGwk_LHB96VFM-16" value="" style="edgeStyle=orthogonalEdgeStyle;orthogonalLoop=1;jettySize=auto;html=1;strokeColor=#E07A5F;fontColor=#393C56;labelBackgroundColor=#F4F1DE;sketch=1;" parent="_Rq-kcXYGwk_LHB96VFM-1" source="_Rq-kcXYGwk_LHB96VFM-11" target="_Rq-kcXYGwk_LHB96VFM-15" edge="1">
                    <mxGeometry relative="1" as="geometry">
                        <Array as="points">
                            <mxPoint x="70.12" y="630"/>
                            <mxPoint x="70.12" y="630"/>
                        </Array>
                    </mxGeometry>
                </mxCell>
                <mxCell id="_Rq-kcXYGwk_LHB96VFM-36" value="child" style="edgeLabel;html=1;align=center;verticalAlign=middle;resizable=0;points=[];fontColor=#393C56;labelBackgroundColor=#F4F1DE;sketch=1;" parent="_Rq-kcXYGwk_LHB96VFM-16" vertex="1" connectable="0">
                    <mxGeometry x="0.1134" y="-2" relative="1" as="geometry">
                        <mxPoint as="offset"/>
                    </mxGeometry>
                </mxCell>
                <mxCell id="_Rq-kcXYGwk_LHB96VFM-22" style="orthogonalLoop=1;jettySize=auto;html=1;exitX=0.5;exitY=0;exitDx=0;exitDy=0;entryX=0;entryY=0.5;entryDx=0;entryDy=0;strokeColor=#E07A5F;fontColor=#393C56;labelBackgroundColor=#F4F1DE;sketch=1;" parent="_Rq-kcXYGwk_LHB96VFM-1" source="_Rq-kcXYGwk_LHB96VFM-11" target="_Rq-kcXYGwk_LHB96VFM-7" edge="1">
                    <mxGeometry relative="1" as="geometry"/>
                </mxCell>
                <mxCell id="_Rq-kcXYGwk_LHB96VFM-33" value="return" style="edgeLabel;html=1;align=center;verticalAlign=middle;resizable=0;points=[];fontColor=#393C56;labelBackgroundColor=#F4F1DE;sketch=1;" parent="_Rq-kcXYGwk_LHB96VFM-22" vertex="1" connectable="0">
                    <mxGeometry x="0.1785" y="2" relative="1" as="geometry">
                        <mxPoint x="-21" y="-5" as="offset"/>
                    </mxGeometry>
                </mxCell>
                <mxCell id="_Rq-kcXYGwk_LHB96VFM-11" value="p" style="whiteSpace=wrap;html=1;fillColor=#F2CC8F;strokeColor=#E07A5F;fontColor=#393C56;sketch=1;" parent="_Rq-kcXYGwk_LHB96VFM-1" vertex="1">
                    <mxGeometry x="40.120000000000005" y="540" width="120" height="60" as="geometry"/>
                </mxCell>
                <mxCell id="_Rq-kcXYGwk_LHB96VFM-21" style="edgeStyle=orthogonalEdgeStyle;orthogonalLoop=1;jettySize=auto;html=1;exitX=0.75;exitY=0;exitDx=0;exitDy=0;entryX=0.75;entryY=1;entryDx=0;entryDy=0;strokeColor=#E07A5F;fontColor=#393C56;labelBackgroundColor=#F4F1DE;sketch=1;" parent="_Rq-kcXYGwk_LHB96VFM-1" source="_Rq-kcXYGwk_LHB96VFM-13" target="_Rq-kcXYGwk_LHB96VFM-9" edge="1">
                    <mxGeometry relative="1" as="geometry"/>
                </mxCell>
                <mxCell id="_Rq-kcXYGwk_LHB96VFM-26" value="return" style="edgeLabel;html=1;align=center;verticalAlign=middle;resizable=0;points=[];fontColor=#393C56;labelBackgroundColor=#F4F1DE;sketch=1;" parent="_Rq-kcXYGwk_LHB96VFM-21" vertex="1" connectable="0">
                    <mxGeometry x="-0.1134" y="-4" relative="1" as="geometry">
                        <mxPoint as="offset"/>
                    </mxGeometry>
                </mxCell>
                <mxCell id="_Rq-kcXYGwk_LHB96VFM-105" style="edgeStyle=none;orthogonalLoop=1;jettySize=auto;html=1;exitX=1;exitY=0.5;exitDx=0;exitDy=0;entryX=0;entryY=0.5;entryDx=0;entryDy=0;strokeColor=#E07A5F;fontColor=#393C56;labelBackgroundColor=#F4F1DE;sketch=1;" parent="_Rq-kcXYGwk_LHB96VFM-1" source="_Rq-kcXYGwk_LHB96VFM-13" target="_Rq-kcXYGwk_LHB96VFM-82" edge="1">
                    <mxGeometry relative="1" as="geometry"/>
                </mxCell>
                <mxCell id="_Rq-kcXYGwk_LHB96VFM-106" value="altermate" style="edgeLabel;html=1;align=center;verticalAlign=middle;resizable=0;points=[];fontColor=#393C56;labelBackgroundColor=#F4F1DE;sketch=1;" parent="_Rq-kcXYGwk_LHB96VFM-105" vertex="1" connectable="0">
                    <mxGeometry x="-0.1806" y="-1" relative="1" as="geometry">
                        <mxPoint as="offset"/>
                    </mxGeometry>
                </mxCell>
                <mxCell id="_Rq-kcXYGwk_LHB96VFM-13" value="这是标题" style="whiteSpace=wrap;html=1;fillColor=#F2CC8F;strokeColor=#E07A5F;fontColor=#393C56;sketch=1;" parent="_Rq-kcXYGwk_LHB96VFM-1" vertex="1">
                    <mxGeometry x="240" y="670" width="120" height="60" as="geometry"/>
                </mxCell>
                <mxCell id="_Rq-kcXYGwk_LHB96VFM-35" style="edgeStyle=orthogonalEdgeStyle;orthogonalLoop=1;jettySize=auto;html=1;exitX=0.75;exitY=0;exitDx=0;exitDy=0;entryX=0.75;entryY=1;entryDx=0;entryDy=0;strokeColor=#E07A5F;fontColor=#393C56;labelBackgroundColor=#F4F1DE;sketch=1;" parent="_Rq-kcXYGwk_LHB96VFM-1" source="_Rq-kcXYGwk_LHB96VFM-15" target="_Rq-kcXYGwk_LHB96VFM-11" edge="1">
                    <mxGeometry relative="1" as="geometry"/>
                </mxCell>
                <mxCell id="_Rq-kcXYGwk_LHB96VFM-37" value="return" style="edgeLabel;html=1;align=center;verticalAlign=middle;resizable=0;points=[];fontColor=#393C56;labelBackgroundColor=#F4F1DE;sketch=1;" parent="_Rq-kcXYGwk_LHB96VFM-35" vertex="1" connectable="0">
                    <mxGeometry x="-0.0461" relative="1" as="geometry">
                        <mxPoint as="offset"/>
                    </mxGeometry>
                </mxCell>
                <mxCell id="_Rq-kcXYGwk_LHB96VFM-15" value="这是内容" style="whiteSpace=wrap;html=1;fillColor=#F2CC8F;strokeColor=#E07A5F;fontColor=#393C56;sketch=1;" parent="_Rq-kcXYGwk_LHB96VFM-1" vertex="1">
                    <mxGeometry x="40.120000000000005" y="670" width="120" height="60" as="geometry"/>
                </mxCell>
                <mxCell id="_Rq-kcXYGwk_LHB96VFM-44" value="" style="swimlane;startSize=0;dashed=1;fillColor=#F2CC8F;strokeColor=#E07A5F;fontColor=#393C56;sketch=1;" parent="_Rq-kcXYGwk_LHB96VFM-1" vertex="1">
                    <mxGeometry x="20" y="150" width="370" height="620" as="geometry"/>
                </mxCell>
                <mxCell id="_Rq-kcXYGwk_LHB96VFM-45" value="current Fiber" style="text;html=1;align=center;verticalAlign=middle;resizable=0;points=[];autosize=1;strokeColor=none;fontColor=#393C56;sketch=1;" parent="_Rq-kcXYGwk_LHB96VFM-1" vertex="1">
                    <mxGeometry x="60" y="130" width="80" height="20" as="geometry"/>
                </mxCell>
                <mxCell id="_Rq-kcXYGwk_LHB96VFM-53" value="" style="edgeStyle=orthogonalEdgeStyle;orthogonalLoop=1;jettySize=auto;html=1;strokeColor=#E07A5F;fontColor=#393C56;labelBackgroundColor=#F4F1DE;sketch=1;" parent="_Rq-kcXYGwk_LHB96VFM-1" source="_Rq-kcXYGwk_LHB96VFM-57" target="_Rq-kcXYGwk_LHB96VFM-61" edge="1">
                    <mxGeometry relative="1" as="geometry">
                        <Array as="points">
                            <mxPoint x="530" y="250"/>
                            <mxPoint x="530" y="250"/>
                        </Array>
                    </mxGeometry>
                </mxCell>
                <mxCell id="_Rq-kcXYGwk_LHB96VFM-54" value="child" style="edgeLabel;html=1;align=center;verticalAlign=middle;resizable=0;points=[];fontColor=#393C56;labelBackgroundColor=#F4F1DE;sketch=1;" parent="_Rq-kcXYGwk_LHB96VFM-53" vertex="1" connectable="0">
                    <mxGeometry x="-0.0736" y="5" relative="1" as="geometry">
                        <mxPoint as="offset"/>
                    </mxGeometry>
                </mxCell>
                <mxCell id="_Rq-kcXYGwk_LHB96VFM-57" value="rootFiber" style="whiteSpace=wrap;html=1;fillColor=#F2CC8F;strokeColor=#E07A5F;fontColor=#393C56;sketch=1;" parent="_Rq-kcXYGwk_LHB96VFM-1" vertex="1">
                    <mxGeometry x="500" y="170" width="120" height="60" as="geometry"/>
                </mxCell>
                <mxCell id="_Rq-kcXYGwk_LHB96VFM-58" value="child" style="edgeStyle=orthogonalEdgeStyle;orthogonalLoop=1;jettySize=auto;html=1;strokeColor=#E07A5F;fontColor=#393C56;labelBackgroundColor=#F4F1DE;sketch=1;" parent="_Rq-kcXYGwk_LHB96VFM-1" source="_Rq-kcXYGwk_LHB96VFM-61" target="_Rq-kcXYGwk_LHB96VFM-66" edge="1">
                    <mxGeometry relative="1" as="geometry">
                        <Array as="points">
                            <mxPoint x="530" y="370"/>
                            <mxPoint x="530" y="370"/>
                        </Array>
                    </mxGeometry>
                </mxCell>
                <mxCell id="_Rq-kcXYGwk_LHB96VFM-59" style="edgeStyle=orthogonalEdgeStyle;orthogonalLoop=1;jettySize=auto;html=1;exitX=0.75;exitY=0;exitDx=0;exitDy=0;entryX=0.75;entryY=1;entryDx=0;entryDy=0;strokeColor=#E07A5F;fontColor=#393C56;labelBackgroundColor=#F4F1DE;sketch=1;" parent="_Rq-kcXYGwk_LHB96VFM-1" source="_Rq-kcXYGwk_LHB96VFM-61" target="_Rq-kcXYGwk_LHB96VFM-57" edge="1">
                    <mxGeometry relative="1" as="geometry"/>
                </mxCell>
                <mxCell id="_Rq-kcXYGwk_LHB96VFM-60" value="return" style="edgeLabel;html=1;align=center;verticalAlign=middle;resizable=0;points=[];fontColor=#393C56;labelBackgroundColor=#F4F1DE;sketch=1;" parent="_Rq-kcXYGwk_LHB96VFM-59" vertex="1" connectable="0">
                    <mxGeometry x="-0.1617" y="-1" relative="1" as="geometry">
                        <mxPoint as="offset"/>
                    </mxGeometry>
                </mxCell>
                <mxCell id="_Rq-kcXYGwk_LHB96VFM-61" value="App" style="whiteSpace=wrap;html=1;fillColor=#F2CC8F;strokeColor=#E07A5F;fontColor=#393C56;sketch=1;" parent="_Rq-kcXYGwk_LHB96VFM-1" vertex="1">
                    <mxGeometry x="500" y="290" width="120" height="60" as="geometry"/>
                </mxCell>
                <mxCell id="_Rq-kcXYGwk_LHB96VFM-62" value="" style="edgeStyle=orthogonalEdgeStyle;orthogonalLoop=1;jettySize=auto;html=1;strokeColor=#E07A5F;fontColor=#393C56;labelBackgroundColor=#F4F1DE;sketch=1;" parent="_Rq-kcXYGwk_LHB96VFM-1" source="_Rq-kcXYGwk_LHB96VFM-66" target="_Rq-kcXYGwk_LHB96VFM-74" edge="1">
                    <mxGeometry relative="1" as="geometry">
                        <Array as="points">
                            <mxPoint x="530" y="500"/>
                            <mxPoint x="530" y="500"/>
                        </Array>
                    </mxGeometry>
                </mxCell>
                <mxCell id="_Rq-kcXYGwk_LHB96VFM-63" value="child" style="edgeLabel;html=1;align=center;verticalAlign=middle;resizable=0;points=[];fontColor=#393C56;labelBackgroundColor=#F4F1DE;sketch=1;" parent="_Rq-kcXYGwk_LHB96VFM-62" vertex="1" connectable="0">
                    <mxGeometry x="-0.2501" y="-3" relative="1" as="geometry">
                        <mxPoint as="offset"/>
                    </mxGeometry>
                </mxCell>
                <mxCell id="_Rq-kcXYGwk_LHB96VFM-64" style="edgeStyle=orthogonalEdgeStyle;orthogonalLoop=1;jettySize=auto;html=1;exitX=0.75;exitY=0;exitDx=0;exitDy=0;entryX=0.75;entryY=1;entryDx=0;entryDy=0;strokeColor=#E07A5F;fontColor=#393C56;labelBackgroundColor=#F4F1DE;sketch=1;" parent="_Rq-kcXYGwk_LHB96VFM-1" source="_Rq-kcXYGwk_LHB96VFM-66" target="_Rq-kcXYGwk_LHB96VFM-61" edge="1">
                    <mxGeometry relative="1" as="geometry"/>
                </mxCell>
                <mxCell id="_Rq-kcXYGwk_LHB96VFM-65" value="return" style="edgeLabel;html=1;align=center;verticalAlign=middle;resizable=0;points=[];fontColor=#393C56;labelBackgroundColor=#F4F1DE;sketch=1;" parent="_Rq-kcXYGwk_LHB96VFM-64" vertex="1" connectable="0">
                    <mxGeometry x="0.0379" y="-1" relative="1" as="geometry">
                        <mxPoint as="offset"/>
                    </mxGeometry>
                </mxCell>
                <mxCell id="_Rq-kcXYGwk_LHB96VFM-66" value="div" style="whiteSpace=wrap;html=1;fillColor=#F2CC8F;strokeColor=#E07A5F;fontColor=#393C56;sketch=1;" parent="_Rq-kcXYGwk_LHB96VFM-1" vertex="1">
                    <mxGeometry x="500" y="420" width="120" height="60" as="geometry"/>
                </mxCell>
                <mxCell id="_Rq-kcXYGwk_LHB96VFM-67" value="" style="edgeStyle=orthogonalEdgeStyle;orthogonalLoop=1;jettySize=auto;html=1;strokeColor=#E07A5F;fontColor=#393C56;labelBackgroundColor=#F4F1DE;sketch=1;" parent="_Rq-kcXYGwk_LHB96VFM-1" source="_Rq-kcXYGwk_LHB96VFM-74" target="_Rq-kcXYGwk_LHB96VFM-79" edge="1">
                    <mxGeometry relative="1" as="geometry"/>
                </mxCell>
                <mxCell id="_Rq-kcXYGwk_LHB96VFM-68" value="sibling" style="edgeLabel;html=1;align=center;verticalAlign=middle;resizable=0;points=[];fontColor=#393C56;labelBackgroundColor=#F4F1DE;sketch=1;" parent="_Rq-kcXYGwk_LHB96VFM-67" vertex="1" connectable="0">
                    <mxGeometry x="-0.092" y="-2" relative="1" as="geometry">
                        <mxPoint x="4" y="-12" as="offset"/>
                    </mxGeometry>
                </mxCell>
                <mxCell id="_Rq-kcXYGwk_LHB96VFM-69" value="" style="edgeStyle=orthogonalEdgeStyle;orthogonalLoop=1;jettySize=auto;html=1;strokeColor=#E07A5F;fontColor=#393C56;labelBackgroundColor=#F4F1DE;sketch=1;" parent="_Rq-kcXYGwk_LHB96VFM-1" source="_Rq-kcXYGwk_LHB96VFM-74" target="_Rq-kcXYGwk_LHB96VFM-82" edge="1">
                    <mxGeometry relative="1" as="geometry">
                        <Array as="points">
                            <mxPoint x="530" y="620"/>
                            <mxPoint x="530" y="620"/>
                        </Array>
                    </mxGeometry>
                </mxCell>
                <mxCell id="_Rq-kcXYGwk_LHB96VFM-70" value="child" style="edgeLabel;html=1;align=center;verticalAlign=middle;resizable=0;points=[];fontColor=#393C56;labelBackgroundColor=#F4F1DE;sketch=1;" parent="_Rq-kcXYGwk_LHB96VFM-69" vertex="1" connectable="0">
                    <mxGeometry x="0.0798" y="1" relative="1" as="geometry">
                        <mxPoint as="offset"/>
                    </mxGeometry>
                </mxCell>
                <mxCell id="_Rq-kcXYGwk_LHB96VFM-71" style="edgeStyle=orthogonalEdgeStyle;orthogonalLoop=1;jettySize=auto;html=1;exitX=0.75;exitY=0;exitDx=0;exitDy=0;entryX=0.75;entryY=1;entryDx=0;entryDy=0;strokeColor=#E07A5F;fontColor=#393C56;labelBackgroundColor=#F4F1DE;sketch=1;" parent="_Rq-kcXYGwk_LHB96VFM-1" source="_Rq-kcXYGwk_LHB96VFM-74" target="_Rq-kcXYGwk_LHB96VFM-66" edge="1">
                    <mxGeometry relative="1" as="geometry"/>
                </mxCell>
                <mxCell id="_Rq-kcXYGwk_LHB96VFM-72" value="&lt;span style=&quot;color: rgba(0 , 0 , 0 , 0) ; font-family: monospace ; font-size: 0px&quot;&gt;%3CmxGraphModel%3E%3Croot%3E%3CmxCell%20id%3D%220%22%2F%3E%3CmxCell%20id%3D%221%22%20parent%3D%220%22%2F%3E%3CmxCell%20id%3D%222%22%20value%3D%22return%22%20style%3D%22edgeLabel%3Bhtml%3D1%3Balign%3Dcenter%3BverticalAlign%3Dmiddle%3Bresizable%3D0%3Bpoints%3D%5B%5D%3B%22%20vertex%3D%221%22%20connectable%3D%220%22%20parent%3D%221%22%3E%3CmxGeometry%20x%3D%22334%22%20y%3D%22639.4117647058822%22%20as%3D%22geometry%22%2F%3E%3C%2FmxCell%3E%3C%2Froot%3E%3C%2FmxGraphModel%3E&lt;/span&gt;" style="edgeLabel;html=1;align=center;verticalAlign=middle;resizable=0;points=[];fontColor=#393C56;labelBackgroundColor=#F4F1DE;sketch=1;" parent="_Rq-kcXYGwk_LHB96VFM-71" vertex="1" connectable="0">
                    <mxGeometry x="-0.0636" relative="1" as="geometry">
                        <mxPoint as="offset"/>
                    </mxGeometry>
                </mxCell>
                <mxCell id="_Rq-kcXYGwk_LHB96VFM-73" value="return" style="edgeLabel;html=1;align=center;verticalAlign=middle;resizable=0;points=[];fontColor=#393C56;labelBackgroundColor=#F4F1DE;sketch=1;" parent="_Rq-kcXYGwk_LHB96VFM-71" vertex="1" connectable="0">
                    <mxGeometry x="-0.0244" y="5" relative="1" as="geometry">
                        <mxPoint as="offset"/>
                    </mxGeometry>
                </mxCell>
                <mxCell id="_Rq-kcXYGwk_LHB96VFM-74" value="h1" style="whiteSpace=wrap;html=1;fillColor=#F2CC8F;strokeColor=#E07A5F;fontColor=#393C56;sketch=1;" parent="_Rq-kcXYGwk_LHB96VFM-1" vertex="1">
                    <mxGeometry x="500" y="540" width="120" height="60" as="geometry"/>
                </mxCell>
                <mxCell id="_Rq-kcXYGwk_LHB96VFM-88" value="child" style="edgeStyle=none;orthogonalLoop=1;jettySize=auto;html=1;exitX=0.25;exitY=1;exitDx=0;exitDy=0;strokeColor=#E07A5F;fontColor=#393C56;labelBackgroundColor=#F4F1DE;sketch=1;" parent="_Rq-kcXYGwk_LHB96VFM-1" source="_Rq-kcXYGwk_LHB96VFM-79" edge="1">
                    <mxGeometry relative="1" as="geometry">
                        <mxPoint x="700" y="670" as="targetPoint"/>
                    </mxGeometry>
                </mxCell>
                <mxCell id="_Rq-kcXYGwk_LHB96VFM-90" style="edgeStyle=none;orthogonalLoop=1;jettySize=auto;html=1;exitX=0.5;exitY=0;exitDx=0;exitDy=0;entryX=1;entryY=0.5;entryDx=0;entryDy=0;strokeColor=#E07A5F;fontColor=#393C56;labelBackgroundColor=#F4F1DE;sketch=1;" parent="_Rq-kcXYGwk_LHB96VFM-1" source="_Rq-kcXYGwk_LHB96VFM-79" target="_Rq-kcXYGwk_LHB96VFM-66" edge="1">
                    <mxGeometry relative="1" as="geometry"/>
                </mxCell>
                <mxCell id="_Rq-kcXYGwk_LHB96VFM-91" value="return" style="edgeLabel;html=1;align=center;verticalAlign=middle;resizable=0;points=[];fontColor=#393C56;labelBackgroundColor=#F4F1DE;sketch=1;" parent="_Rq-kcXYGwk_LHB96VFM-90" vertex="1" connectable="0">
                    <mxGeometry x="0.0336" y="1" relative="1" as="geometry">
                        <mxPoint x="7" y="-15" as="offset"/>
                    </mxGeometry>
                </mxCell>
                <mxCell id="_Rq-kcXYGwk_LHB96VFM-79" value="p" style="whiteSpace=wrap;html=1;fillColor=#F2CC8F;strokeColor=#E07A5F;fontColor=#393C56;sketch=1;" parent="_Rq-kcXYGwk_LHB96VFM-1" vertex="1">
                    <mxGeometry x="670" y="540" width="120" height="60" as="geometry"/>
                </mxCell>
                <mxCell id="_Rq-kcXYGwk_LHB96VFM-80" style="edgeStyle=orthogonalEdgeStyle;orthogonalLoop=1;jettySize=auto;html=1;exitX=0.75;exitY=0;exitDx=0;exitDy=0;entryX=0.75;entryY=1;entryDx=0;entryDy=0;strokeColor=#E07A5F;fontColor=#393C56;labelBackgroundColor=#F4F1DE;sketch=1;" parent="_Rq-kcXYGwk_LHB96VFM-1" source="_Rq-kcXYGwk_LHB96VFM-82" target="_Rq-kcXYGwk_LHB96VFM-74" edge="1">
                    <mxGeometry relative="1" as="geometry"/>
                </mxCell>
                <mxCell id="_Rq-kcXYGwk_LHB96VFM-81" value="return" style="edgeLabel;html=1;align=center;verticalAlign=middle;resizable=0;points=[];fontColor=#393C56;labelBackgroundColor=#F4F1DE;sketch=1;" parent="_Rq-kcXYGwk_LHB96VFM-80" vertex="1" connectable="0">
                    <mxGeometry x="-0.1134" y="-4" relative="1" as="geometry">
                        <mxPoint as="offset"/>
                    </mxGeometry>
                </mxCell>
                <mxCell id="_Rq-kcXYGwk_LHB96VFM-82" value="这是标题" style="whiteSpace=wrap;html=1;fillColor=#F2CC8F;strokeColor=#E07A5F;fontColor=#393C56;sketch=1;" parent="_Rq-kcXYGwk_LHB96VFM-1" vertex="1">
                    <mxGeometry x="500" y="670" width="120" height="60" as="geometry"/>
                </mxCell>
                <mxCell id="_Rq-kcXYGwk_LHB96VFM-83" style="edgeStyle=orthogonalEdgeStyle;orthogonalLoop=1;jettySize=auto;html=1;exitX=0.75;exitY=0;exitDx=0;exitDy=0;entryX=0.75;entryY=1;entryDx=0;entryDy=0;strokeColor=#E07A5F;fontColor=#393C56;labelBackgroundColor=#F4F1DE;sketch=1;" parent="_Rq-kcXYGwk_LHB96VFM-1" source="_Rq-kcXYGwk_LHB96VFM-85" target="_Rq-kcXYGwk_LHB96VFM-79" edge="1">
                    <mxGeometry relative="1" as="geometry"/>
                </mxCell>
                <mxCell id="_Rq-kcXYGwk_LHB96VFM-84" value="return" style="edgeLabel;html=1;align=center;verticalAlign=middle;resizable=0;points=[];fontColor=#393C56;labelBackgroundColor=#F4F1DE;sketch=1;" parent="_Rq-kcXYGwk_LHB96VFM-83" vertex="1" connectable="0">
                    <mxGeometry x="-0.0461" relative="1" as="geometry">
                        <mxPoint as="offset"/>
                    </mxGeometry>
                </mxCell>
                <mxCell id="_Rq-kcXYGwk_LHB96VFM-85" value="这是更改后的内容" style="whiteSpace=wrap;html=1;fillColor=#F2CC8F;strokeColor=#E07A5F;fontColor=#393C56;sketch=1;" parent="_Rq-kcXYGwk_LHB96VFM-1" vertex="1">
                    <mxGeometry x="670" y="670" width="120" height="60" as="geometry"/>
                </mxCell>
                <mxCell id="_Rq-kcXYGwk_LHB96VFM-86" value="" style="swimlane;startSize=0;dashed=1;fillColor=#F2CC8F;strokeColor=#E07A5F;fontColor=#393C56;sketch=1;" parent="_Rq-kcXYGwk_LHB96VFM-1" vertex="1">
                    <mxGeometry x="450" y="150" width="370" height="620" as="geometry"/>
                </mxCell>
                <mxCell id="_Rq-kcXYGwk_LHB96VFM-87" value="workInPorgress Fiber" style="text;html=1;align=center;verticalAlign=middle;resizable=0;points=[];autosize=1;strokeColor=none;fontColor=#393C56;sketch=1;" parent="_Rq-kcXYGwk_LHB96VFM-1" vertex="1">
                    <mxGeometry x="555" y="120" width="130" height="20" as="geometry"/>
                </mxCell>
                <mxCell id="_Rq-kcXYGwk_LHB96VFM-89" style="edgeStyle=none;orthogonalLoop=1;jettySize=auto;html=1;exitX=1;exitY=0.75;exitDx=0;exitDy=0;strokeColor=#E07A5F;fontColor=#393C56;labelBackgroundColor=#F4F1DE;sketch=1;" parent="_Rq-kcXYGwk_LHB96VFM-1" source="_Rq-kcXYGwk_LHB96VFM-86" target="_Rq-kcXYGwk_LHB96VFM-86" edge="1">
                    <mxGeometry relative="1" as="geometry"/>
                </mxCell>
                <mxCell id="_Rq-kcXYGwk_LHB96VFM-94" value="" style="endArrow=classic;startArrow=classic;html=1;exitX=1;exitY=0.5;exitDx=0;exitDy=0;entryX=0;entryY=0.5;entryDx=0;entryDy=0;strokeColor=#E07A5F;fontColor=#393C56;labelBackgroundColor=#F4F1DE;sketch=1;" parent="_Rq-kcXYGwk_LHB96VFM-1" source="_Rq-kcXYGwk_LHB96VFM-3" target="_Rq-kcXYGwk_LHB96VFM-57" edge="1">
                    <mxGeometry width="50" height="50" relative="1" as="geometry">
                        <mxPoint x="400" y="140" as="sourcePoint"/>
                        <mxPoint x="450" y="90" as="targetPoint"/>
                    </mxGeometry>
                </mxCell>
                <mxCell id="_Rq-kcXYGwk_LHB96VFM-98" value="altermate" style="edgeLabel;html=1;align=center;verticalAlign=middle;resizable=0;points=[];fontColor=#393C56;labelBackgroundColor=#F4F1DE;sketch=1;" parent="_Rq-kcXYGwk_LHB96VFM-94" vertex="1" connectable="0">
                    <mxGeometry x="-0.0461" y="-3" relative="1" as="geometry">
                        <mxPoint as="offset"/>
                    </mxGeometry>
                </mxCell>
            </root>
        </mxGraphModel>
    </diagram>
</mxfile>
